<mxfile host="app.diagrams.net" modified="2023-11-03T07:02:08.537Z" agent="Mozilla/5.0 (X11; Linux x86_64) AppleWebKit/537.36 (KHTML, like Gecko) Chrome/118.0.0.0 Safari/537.36" etag="V_0vrobOWT9BW47gb2aQ" version="22.0.8" type="github">
  <diagram name="Page-1" id="DxE3iIKvWCXVfC5Ny44k">
    <mxGraphModel dx="1354" dy="771" grid="1" gridSize="10" guides="1" tooltips="1" connect="1" arrows="1" fold="1" page="1" pageScale="1" pageWidth="850" pageHeight="1100" math="0" shadow="0">
      <root>
        <mxCell id="0" />
        <mxCell id="1" parent="0" />
        <mxCell id="Lar3wEtWybTDCuJ2HaA1-9" style="edgeStyle=orthogonalEdgeStyle;rounded=0;orthogonalLoop=1;jettySize=auto;html=1;exitX=1;exitY=0.5;exitDx=0;exitDy=0;entryX=0;entryY=0.5;entryDx=0;entryDy=0;" edge="1" parent="1" source="Lar3wEtWybTDCuJ2HaA1-1" target="Lar3wEtWybTDCuJ2HaA1-2">
          <mxGeometry relative="1" as="geometry" />
        </mxCell>
        <mxCell id="Lar3wEtWybTDCuJ2HaA1-1" value="toy language code" style="rounded=0;whiteSpace=wrap;html=1;" vertex="1" parent="1">
          <mxGeometry x="90" y="180" width="120" height="60" as="geometry" />
        </mxCell>
        <mxCell id="Lar3wEtWybTDCuJ2HaA1-12" value="" style="edgeStyle=orthogonalEdgeStyle;rounded=0;orthogonalLoop=1;jettySize=auto;html=1;" edge="1" parent="1" source="Lar3wEtWybTDCuJ2HaA1-2" target="Lar3wEtWybTDCuJ2HaA1-11">
          <mxGeometry relative="1" as="geometry" />
        </mxCell>
        <mxCell id="Lar3wEtWybTDCuJ2HaA1-2" value="AST" style="whiteSpace=wrap;html=1;rounded=0;" vertex="1" parent="1">
          <mxGeometry x="380" y="180" width="120" height="60" as="geometry" />
        </mxCell>
        <mxCell id="Lar3wEtWybTDCuJ2HaA1-10" style="edgeStyle=orthogonalEdgeStyle;rounded=0;orthogonalLoop=1;jettySize=auto;html=1;exitX=0.5;exitY=1;exitDx=0;exitDy=0;" edge="1" parent="1" source="Lar3wEtWybTDCuJ2HaA1-4">
          <mxGeometry relative="1" as="geometry">
            <mxPoint x="295" y="210" as="targetPoint" />
          </mxGeometry>
        </mxCell>
        <mxCell id="Lar3wEtWybTDCuJ2HaA1-4" value="lex、parse" style="ellipse;whiteSpace=wrap;html=1;rounded=0;" vertex="1" parent="1">
          <mxGeometry x="220" y="50" width="150" height="80" as="geometry" />
        </mxCell>
        <mxCell id="Lar3wEtWybTDCuJ2HaA1-11" value="MLIR" style="whiteSpace=wrap;html=1;rounded=0;" vertex="1" parent="1">
          <mxGeometry x="600" y="180" width="120" height="60" as="geometry" />
        </mxCell>
        <mxCell id="Lar3wEtWybTDCuJ2HaA1-13" style="edgeStyle=orthogonalEdgeStyle;rounded=0;orthogonalLoop=1;jettySize=auto;html=1;exitX=0.5;exitY=1;exitDx=0;exitDy=0;" edge="1" parent="1" source="Lar3wEtWybTDCuJ2HaA1-14">
          <mxGeometry relative="1" as="geometry">
            <mxPoint x="555" y="210" as="targetPoint" />
          </mxGeometry>
        </mxCell>
        <mxCell id="Lar3wEtWybTDCuJ2HaA1-14" value="dialect" style="ellipse;whiteSpace=wrap;html=1;rounded=0;" vertex="1" parent="1">
          <mxGeometry x="480" y="50" width="150" height="80" as="geometry" />
        </mxCell>
      </root>
    </mxGraphModel>
  </diagram>
</mxfile>
